<svg width="226" height="38" viewBox="0 0 226 38" fill="none" xmlns="http://www.w3.org/2000/svg">
<path d="M43.5063 26.982C43.3776 26.6662 32.6857 5.34879 32.5127 5.05732C31.9495 3.7012 30.964 2.50699 29.6044 1.70951C26.2818 -0.249791 22.0139 0.871543 20.067 4.2153C18.7315 6.50654 18.8361 9.25118 20.1072 11.3764C20.2359 11.6922 30.4692 32.0948 30.6422 32.3903C30.7709 32.7061 30.9238 33.0097 31.1008 33.3052C31.6639 34.6613 32.6495 35.8555 34.0091 36.653C37.3317 38.6123 41.5996 37.491 43.5465 34.1472C44.882 31.8519 44.7774 29.1113 43.5063 26.982Z" fill="#B5B7C6"/>
<path d="M31.1611 12.5602C32.3317 11.3053 33.0477 9.61721 33.0477 7.76317C33.0477 3.8891 29.9262 0.747742 26.0766 0.747742C23.7074 0.747742 21.6197 1.93789 20.3606 3.75145C20.1313 3.99839 2.77408 25.5264 2.581 25.8017C1.41044 27.0566 0.694427 28.7446 0.694427 30.5987C0.694427 34.4728 3.81592 37.6141 7.66549 37.6141C10.0348 37.6141 12.1225 36.424 13.3815 34.6104C13.6108 34.3635 30.968 12.8355 31.1611 12.5602Z" fill="#A4A7BA"/>
<path d="M61.0326 12.5604C62.2031 11.3055 62.9191 9.6174 62.9191 7.76335C62.9191 3.88928 59.7977 0.747925 55.9481 0.747925C53.5788 0.747925 51.4911 1.93807 50.2321 3.75163C50.0028 3.99857 32.6455 25.5266 32.4524 25.8018C31.2819 27.0568 30.5659 28.7448 30.5659 30.5989C30.5659 34.4729 33.6874 37.6143 37.5369 37.6143C39.9062 37.6143 41.9939 36.4241 43.253 34.6106C43.4822 34.3636 60.8395 12.8357 61.0326 12.5604Z" fill="#A4A7BA"/>
<path d="M98.8724 34.2035C97.054 30.9533 95.0863 27.7441 92.9694 24.5759C90.8525 21.4076 88.5999 18.4169 86.2116 15.6037V34.2035H79.9423V5.81215H85.1125C86.0081 6.71347 86.9987 7.81962 88.0843 9.13062C89.1699 10.4416 90.269 11.8482 91.3818 13.3504C92.5216 14.8253 93.6479 16.3684 94.7607 17.9799C95.8734 19.564 96.9183 21.0935 97.8953 22.5684V5.81215H104.205V34.2035H98.8724Z" fill="black"/>
<path d="M128.585 33.4661C127.553 33.7665 126.224 34.0396 124.595 34.2855C122.967 34.5586 121.257 34.6951 119.466 34.6951C117.647 34.6951 116.128 34.4493 114.906 33.9577C113.712 33.4661 112.762 32.7833 112.057 31.9093C111.351 31.008 110.849 29.9428 110.55 28.7137C110.252 27.4846 110.103 26.1327 110.103 24.6578V12.6539H116.168V23.9204C116.168 25.8869 116.426 27.3071 116.942 28.1811C117.457 29.0551 118.421 29.4921 119.832 29.4921C120.266 29.4921 120.728 29.4785 121.216 29.4511C121.705 29.3965 122.139 29.3419 122.519 29.2873V12.6539H128.585V33.4661Z" fill="black"/>
<path d="M134.075 7.28703L140.141 6.30378V12.6539H147.428V17.7341H140.141V25.3133C140.141 26.597 140.358 27.6212 140.792 28.386C141.254 29.1507 142.163 29.5331 143.52 29.5331C144.171 29.5331 144.836 29.4785 145.515 29.3692C146.22 29.2326 146.858 29.0551 147.428 28.8366L148.283 33.589C147.55 33.8894 146.736 34.1489 145.84 34.3674C144.945 34.5859 143.845 34.6951 142.543 34.6951C140.887 34.6951 139.517 34.4766 138.431 34.0396C137.345 33.5753 136.477 32.9471 135.826 32.1551C135.174 31.3357 134.713 30.3525 134.442 29.2053C134.197 28.0582 134.075 26.7882 134.075 25.3952V7.28703Z" fill="black"/>
<path d="M165.272 18.0618C164.73 17.9253 164.092 17.7887 163.359 17.6521C162.626 17.4883 161.839 17.4063 160.998 17.4063C160.618 17.4063 160.157 17.4473 159.614 17.5292C159.098 17.5839 158.705 17.6521 158.433 17.7341V34.2035H152.368V13.8011C153.453 13.4187 154.729 13.0636 156.194 12.7359C157.687 12.3808 159.342 12.2033 161.161 12.2033C161.486 12.2033 161.88 12.2306 162.341 12.2852C162.803 12.3125 163.264 12.3672 163.726 12.4491C164.187 12.5037 164.648 12.5857 165.11 12.6949C165.571 12.7768 165.965 12.8861 166.29 13.0227L165.272 18.0618Z" fill="black"/>
<path d="M175.608 34.2035H169.542V12.6539H175.608V34.2035ZM176.178 6.42668C176.178 7.5465 175.811 8.43415 175.078 9.08965C174.373 9.71784 173.531 10.0319 172.554 10.0319C171.577 10.0319 170.723 9.71784 169.99 9.08965C169.284 8.43415 168.931 7.5465 168.931 6.42668C168.931 5.30687 169.284 4.43287 169.99 3.80468C170.723 3.14918 171.577 2.82143 172.554 2.82143C173.531 2.82143 174.373 3.14918 175.078 3.80468C175.811 4.43287 176.178 5.30687 176.178 6.42668Z" fill="black"/>
<path d="M189.859 34.6132C188.095 34.5859 186.656 34.3947 185.543 34.0396C184.458 33.6846 183.589 33.193 182.938 32.5648C182.314 31.9093 181.88 31.1309 181.635 30.2295C181.418 29.3009 181.31 28.263 181.31 27.1159V3.39499L187.375 2.41174V25.8869C187.375 26.4331 187.416 26.9247 187.497 27.3617C187.579 27.7987 187.728 28.1675 187.945 28.4679C188.19 28.7683 188.529 29.0141 188.963 29.2053C189.397 29.3965 189.981 29.5194 190.714 29.5741L189.859 34.6132Z" fill="black"/>
<path d="M200.256 34.2035H194.19V12.6539H200.256V34.2035ZM200.826 6.42668C200.826 7.5465 200.46 8.43415 199.727 9.08965C199.021 9.71784 198.18 10.0319 197.203 10.0319C196.226 10.0319 195.371 9.71784 194.638 9.08965C193.933 8.43415 193.58 7.5465 193.58 6.42668C193.58 5.30687 193.933 4.43287 194.638 3.80468C195.371 3.14918 196.226 2.82143 197.203 2.82143C198.18 2.82143 199.021 3.14918 199.727 3.80468C200.46 4.43287 200.826 5.30687 200.826 6.42668Z" fill="black"/>
<path d="M214.466 19.2089L218.7 12.6539H224.97L217.642 23.019C219.27 25.0675 220.749 27.0613 222.079 29.0005C223.409 30.9397 224.467 32.674 225.254 34.2035H218.741C218.524 33.7938 218.252 33.2886 217.927 32.6877C217.601 32.0595 217.235 31.4176 216.828 30.7621C216.42 30.0793 215.986 29.4102 215.525 28.7547C215.091 28.0719 214.656 27.4573 214.222 26.9111C213.815 27.43 213.394 28.0036 212.96 28.6318C212.553 29.26 212.16 29.9018 211.78 30.5573C211.4 31.1855 211.02 31.8137 210.64 32.4419C210.287 33.0701 209.975 33.6573 209.703 34.2035H203.515C203.841 33.5207 204.289 32.715 204.859 31.7864C205.429 30.8577 206.039 29.9018 206.691 28.9185C207.369 27.908 208.075 26.9111 208.808 25.9278C209.541 24.9173 210.26 23.975 210.965 23.101C209.744 21.3803 208.523 19.6459 207.301 17.8979C206.08 16.1226 204.872 14.3746 203.678 12.6539H210.233L214.466 19.2089Z" fill="black"/>
</svg>
