<svg width="28" height="28" viewBox="0 0 28 28" fill="none" xmlns="http://www.w3.org/2000/svg">
<path fill-rule="evenodd" clip-rule="evenodd" d="M20.458 0H6.81934C3.06905 0 0 3.06768 0 6.81934V20.458C0 24.2083 3.06905 27.2774 6.81934 27.2774H20.458C24.2083 27.2774 27.2774 24.2083 27.2774 20.458V6.81934C27.2774 3.06768 24.2083 0 20.458 0ZM13.6388 19.3219C10.4998 19.3219 7.95585 16.7769 7.95585 13.6393C7.95585 10.5004 10.4998 7.95643 13.6388 7.95643C16.7763 7.95643 19.3217 10.5004 19.3217 13.6393C19.3217 16.7769 16.7763 19.3219 13.6388 19.3219ZM19.3216 6.25173C19.3216 7.19314 20.084 7.95657 21.0264 7.95657C21.9688 7.95657 22.7312 7.19314 22.7312 6.25173C22.7312 5.31032 21.9688 4.5469 21.0264 4.5469C20.084 4.5469 19.3216 5.31032 19.3216 6.25173Z" fill="url(#paint0_linear_241_120)"/>
<defs>
<linearGradient id="paint0_linear_241_120" x1="13.6387" y1="0" x2="13.6387" y2="27.2774" gradientUnits="userSpaceOnUse">
<stop stop-color="#9888F4"/>
<stop offset="1" stop-color="#715DE3"/>
</linearGradient>
</defs>
</svg>
